<svg width="391" height="300" viewBox="0 0 391 300" fill="none" xmlns="http://www.w3.org/2000/svg">
<g clip-path="url(#clip0_108_3)">
<path d="M69.3899 169.6C69.3899 179.66 66.1799 188.09 59.7599 194.9C53.2099 201.8 44.9299 205.25 34.8999 205.25C24.8699 205.25 16.6599 201.77 10.0899 194.8C3.63992 188 0.419922 179.6 0.419922 169.6C0.419922 159.6 3.63992 151.14 10.0899 144.3C16.6699 137.3 24.9399 133.8 34.8999 133.8C44.8599 133.8 53.0499 137.3 59.6599 144.3C66.1399 151.2 69.3799 159.63 69.3799 169.6H69.3899ZM51.0599 169.5C51.0599 164.66 49.5899 160.55 46.6599 157.17C43.5999 153.62 39.6799 151.85 34.9099 151.85C30.1399 151.85 26.5099 153.69 23.3499 157.36C20.2899 160.91 18.7499 164.99 18.7499 169.6C18.7499 174.53 20.1799 178.64 23.0499 181.93C26.0799 185.38 30.0299 187.11 34.8999 187.11C39.4499 187.11 43.3199 185.29 46.5099 181.64C49.5399 178.16 51.0599 174.11 51.0599 169.5Z" fill="white"/>
<path d="M390.52 202.25C390.52 202.83 390.12 203.23 389.31 203.46C388.34 203.72 385.34 203.85 380.31 203.85C375.7 203.85 372.73 203.72 371.41 203.46C370.31 203.23 369.62 202.51 369.33 201.28C368.23 196.64 367.38 194.15 366.77 193.83C366.25 193.61 361.93 193.49 353.81 193.49C348.33 193.49 345.41 193.63 345.06 193.92C344.51 194.44 343.9 196.16 343.22 199.1C342.61 201.78 341.87 203.23 341 203.45C339.9 203.71 336.23 203.84 329.97 203.84C325.04 203.84 322.57 203.37 322.57 202.44C322.57 201.6 326.21 191.3 333.5 171.53C341.4 150.15 345.69 138.4 346.37 136.27C346.76 135.04 347.21 134.43 347.72 134.43C348.59 134.43 349.94 134.51 351.76 134.67C353.58 134.83 354.94 134.91 355.85 134.91C356.76 134.91 358 134.85 359.69 134.74C361.38 134.63 362.65 134.57 363.49 134.57C364.1 134.57 364.67 135.1 365.18 136.17C366.76 139.56 371.37 151.16 379.01 171C386.68 190.96 390.52 201.38 390.52 202.25ZM356.22 158.18C355.54 159.6 354.4 162.68 352.79 167.42C351.05 172.45 350.18 175.4 350.18 176.27C350.18 176.85 351.15 177.17 353.08 177.24C354.08 177.31 355.72 177.34 358.01 177.34C360.14 177.34 361.31 177.08 361.54 176.57C361.6 176.41 361.64 176.18 361.64 175.89C361.64 174.83 360.9 171.89 359.41 167.09C357.96 162.45 356.9 159.48 356.22 158.19V158.18Z" fill="white"/>
<path d="M210.11 53.58C209.59 55.25 210.09 56.74 210.75 58.73C211.56 61.16 212.3 61.77 214.61 65.82C216.37 68.89 217.24 70.43 217.83 72.26C218.76 75.16 218.28 75.87 219.12 78.7C219.38 79.58 220.26 82.46 222.34 85.14C223.13 86.16 227.41 91.68 233.93 91.58C234.82 91.57 238.32 91.51 241.02 89C243 87.16 243.52 84.96 244.24 81.91C245.33 77.32 245.02 73.56 244.88 72.25C244.61 69.64 244.01 64.55 240.37 59.37C236.25 53.49 230.8 51.18 228.78 50.35C225.84 49.15 220.54 46.98 215.25 49.06C214.14 49.49 210.98 50.74 210.1 53.57L210.11 53.58Z" fill="white"/>
<path d="M263.13 73.22C266.29 71.79 272.18 69.11 274.08 64.85C276.1 60.32 273.58 54.84 268.93 48.1C254.76 27.57 236.08 18.47 236.08 18.47C199.71 0.759955 162.78 14.48 157.5 16.54C148.91 19.88 127.27 28.65 115.63 50.03C110.63 59.21 105.17 74.97 111.12 80.95C114.58 84.43 118.73 81.41 124 85.46C131.36 91.12 128.16 100.78 134.95 105.43C137.87 107.43 140.47 106.95 147.83 106.72C161.45 106.28 146.52 107.95 174.88 107.36C210.44 106.63 207.59 104.56 221.9 105.43C239.65 106.51 251.65 110.17 254.1 105.43C255.15 103.41 253.27 102.15 252.17 95.12C251.43 90.39 249.95 80.9 254.75 76.44C256.83 74.51 257.81 75.63 263.12 73.22H263.13Z" stroke="white" stroke-width="7" stroke-miterlimit="10"/>
<path d="M109.63 49.71C106.22 48.89 104.55 44.58 102.54 39.4C101.26 36.1 99.0901 28.7 101.9 20.08C105 10.56 112.12 5.85997 114.14 4.61997C122.05 -0.210033 129.75 0.399967 133.46 0.759967C136.53 1.04997 146.4 1.98997 151.49 9.12997C152.46 10.49 153.96 12.65 153.42 14.93C152.48 18.93 145.96 20.27 142.47 21.37C122.89 27.56 118.3 51.8 109.62 49.71H109.63Z" fill="white"/>
<path d="M235.87 13.65C235.98 7.44998 245.1 2.90998 249.4 1.40998C262.75 -3.24002 279.38 4.06998 286.11 16.87C290.78 25.75 290.73 37.37 285.47 45.21C284.92 46.03 280.23 53.01 275.16 52.3C271.06 51.72 269.29 46.48 266.79 41.99C256.23 23.05 235.71 23 235.87 13.65Z" fill="white"/>
<path d="M110.77 80.92C105.83 79.88 102.2 79.11 97.8901 79.63C96.1201 79.84 88.1401 80.81 82.4301 87.36C76.2201 94.49 75.3101 105.26 79.2101 112.48C79.5201 113.06 83.3401 119.94 87.5801 119.57C89.7601 119.38 90.7901 117.38 93.3801 117.64C95.1401 117.81 95.5301 118.82 97.8901 120.22C98.5001 120.58 104.41 124.07 107.55 122.15C110.05 120.62 109.45 116.48 110.77 116.35C112.06 116.22 112.26 120.2 115.28 122.15C118.37 124.15 123.59 123.48 125.59 120.86C127.24 118.7 125.83 116.31 127.52 115.06C129.2 113.83 131.14 115.78 133.96 115.06C136.94 114.3 139.34 110.96 139.76 107.97C139.97 106.45 139.76 104.4 132.03 95.09C127 89.03 124.42 85.96 121.08 84.14C117.96 82.44 115.3 81.88 110.77 80.92Z" fill="white"/>
<path d="M276.74 64.82C278.76 64.74 279.24 67.75 281.89 68.04C284.2 68.29 284.58 66.09 287.69 65.46C291.17 64.76 295.43 66.56 297.35 69.32C298.02 70.28 297.92 70.67 298.64 71.25C300.56 72.83 302.61 71.17 305.73 71.89C308.84 72.61 311.22 75.2801 312.17 77.6901C312.58 78.7301 312.67 79.9 312.81 82.2C313.04 85.73 312.86 88.39 312.81 89.29C312.29 98.44 314.61 100.68 312.81 102.82C311.03 104.93 307.67 104.02 300.57 103.46C300.57 103.46 294.03 102.95 281.89 103.46C267.1 104.08 262.04 107.17 258.06 103.46C256.38 101.89 255.86 99.8401 254.84 95.7301C254.01 92.3901 251.79 83.5001 256.13 78.9801C256.67 78.4201 256.53 78.7401 263.86 75.1201C269.82 72.1701 270.42 71.7201 270.95 71.2601C274.57 68.0801 274.68 64.91 276.75 64.82H276.74Z" fill="white"/>
<path d="M266.8 99.69C266.85 97.16 266.78 95.93 266.8 95.44C266.94 91.95 273.2 88.7 273.89 88.35C282.39 84.03 291.1 87.18 292.32 87.64C298.1 89.83 301.52 93.79 301.53 95.44C301.53 95.55 301.53 96.64 301.53 98.28C301.53 99.65 301.54 99.64 301.53 99.7C301.02 101.59 292.37 99.86 283.81 100.41C275.02 100.98 267.78 103.86 266.8 101.83C266.7 101.63 266.76 101.57 266.8 99.7V99.69Z" fill="black"/>
<path d="M264.21 86.43C266.701 86.43 268.72 84.4108 268.72 81.92C268.72 79.4292 266.701 77.41 264.21 77.41C261.719 77.41 259.7 79.4292 259.7 81.92C259.7 84.4108 261.719 86.43 264.21 86.43Z" fill="black"/>
<path d="M277.42 80.63C279.734 80.63 281.61 78.7541 281.61 76.44C281.61 74.1259 279.734 72.25 277.42 72.25C275.106 72.25 273.23 74.1259 273.23 76.44C273.23 78.7541 275.106 80.63 277.42 80.63Z" fill="black"/>
<path d="M290.94 82.5699C293.254 82.5699 295.13 80.694 295.13 78.3799C295.13 76.0659 293.254 74.1899 290.94 74.1899C288.626 74.1899 286.75 76.0659 286.75 78.3799C286.75 80.694 288.626 82.5699 290.94 82.5699Z" fill="black"/>
<path d="M304.18 89.01C306.494 89.01 308.37 87.1341 308.37 84.82C308.37 82.5059 306.494 80.63 304.18 80.63C301.866 80.63 299.99 82.5059 299.99 84.82C299.99 87.1341 301.866 89.01 304.18 89.01Z" fill="black"/>
<path d="M220.42 62.5999C221.845 62.5999 223 61.4448 223 60.0199C223 58.595 221.845 57.4399 220.42 57.4399C218.995 57.4399 217.84 58.595 217.84 60.0199C217.84 61.4448 218.995 62.5999 220.42 62.5999Z" fill="black" stroke="black" stroke-miterlimit="10"/>
<path d="M167.92 67.1C170.941 67.1 173.39 64.651 173.39 61.63C173.39 58.609 170.941 56.16 167.92 56.16C164.899 56.16 162.45 58.609 162.45 61.63C162.45 64.651 164.899 67.1 167.92 67.1Z" stroke="white" stroke-miterlimit="10"/>
<path d="M182.41 65.82C184.62 64.9 186.46 65.46 188.85 65.82C189.12 65.86 193.11 65.85 201.09 65.82C204.83 65.81 206.78 65.79 208.82 67.11C209.55 67.58 211.19 68.65 211.4 70.33C211.69 72.71 208.93 74.97 207.54 76.13C207.38 76.26 207.5 76.16 204.96 78.06C202.42 79.97 202.49 79.93 202.38 79.99C201.05 80.76 199.35 80.93 195.94 81.28C194.84 81.39 193.69 81.46 192.31 81.4C192.31 81.4 191.53 81.36 190.79 81.28C187.16 80.86 183.37 78.87 183.06 78.7C180 77.07 178.48 76.25 177.91 74.84C176.72 71.89 178.98 68.71 179.2 68.4C180.46 66.67 182.08 65.97 182.42 65.82H182.41Z" fill="white"/>
<path d="M192.08 81.9201C191.7 82.3901 191.86 82.8601 192.08 85.1401C192.41 88.6401 192.2 89.3201 192.08 89.6501C191.48 91.2201 189.96 91.9901 189.5 92.2301C184.87 94.5901 178.51 89.9301 177.91 90.9401C177.5 91.6301 180.34 94.0401 180.49 94.1601C181.13 94.7001 182.16 95.54 183.71 96.09C184.63 96.42 187.37 97.22 190.15 96.09C192.62 95.08 192.95 93.4301 194.66 93.5101C196.02 93.5801 196.17 94.6401 197.88 95.4401C201.19 97.0001 205.03 95.0801 205.61 94.8001C208.55 93.3401 210.41 90.6501 210.12 90.2901C209.89 90.0101 208.51 91.3501 205.61 92.2201C204.06 92.6901 201.16 93.5601 198.52 92.2201C198.04 91.9801 196.52 91.2001 195.94 89.6401C195.73 89.0701 195.75 88.6701 195.94 86.4201C196.24 82.8501 196.33 82.3701 195.94 81.9101C195.1 80.9101 192.85 80.9401 192.08 81.9101V81.9201Z" fill="white"/>
<path d="M175.33 50.36C174.71 49.78 173.51 48.89 170.18 48.43C168.09 48.14 163.3 47.53 157.94 49.72C148.68 53.51 145.16 62.61 144.41 64.53C142.14 70.4 142.61 75.27 143.12 80.63C143.42 83.78 143.93 85.5 145.05 87.07C147.82 90.96 152.6 91.5 153.42 91.58C158.51 92.07 162.11 89.15 163.08 88.36C163.96 87.65 167.47 84.62 168.23 79.99C168.65 77.45 167.93 76.31 168.87 73.55C169.31 72.28 169.48 72.47 171.45 69.04C173.52 65.44 173.44 65.04 175.31 61.95C176.86 59.4 176.97 59.57 177.24 58.73C178.09 56.08 177.58 52.48 175.31 50.36H175.33Z" fill="white"/>
<path d="M168.24 61.3C169.665 61.3 170.82 60.2927 170.82 59.05C170.82 57.8074 169.665 56.8 168.24 56.8C166.815 56.8 165.66 57.8074 165.66 59.05C165.66 60.2927 166.815 61.3 168.24 61.3Z" fill="black"/>
<path d="M220.09 65.81C223.111 65.81 225.56 63.361 225.56 60.34C225.56 57.319 223.111 54.87 220.09 54.87C217.069 54.87 214.62 57.319 214.62 60.34C214.62 63.361 217.069 65.81 220.09 65.81Z" stroke="white" stroke-miterlimit="10"/>
<path d="M126.56 151.36C126.56 151.72 126.24 151.89 125.59 151.89C123.17 151.89 119.5 151.68 114.59 151.26C109.67 150.84 105.99 150.63 103.54 150.63C100.44 150.63 98.64 150.74 98.12 150.97C96.93 151.52 96.33 153.07 96.33 155.61C96.33 158.67 97.1 160.42 98.65 160.83C99.29 160.99 100.28 161.07 101.6 161.07C103.82 161.07 107.15 160.95 111.59 160.71C116.02 160.47 119.35 160.35 121.58 160.35C122.64 160.35 123.18 163.19 123.18 168.86C123.18 173.79 123 176.66 122.65 177.47C122.42 178.05 121.99 178.34 121.34 178.34C121.76 178.34 120.74 178.23 118.29 178C114.84 177.68 109.62 177.52 102.62 177.52C100.36 177.52 99.09 177.54 98.8 177.57C97.16 177.83 96.33 178.52 96.33 179.65C96.33 184.23 96.52 189.5 96.91 195.47C97.23 200.86 97.39 203.26 97.39 202.68C97.39 203.52 96.37 204 94.34 204.13C94.89 204.1 93.45 204.08 90.04 204.08C84.01 204.08 80.12 203.87 78.38 203.45C77.44 203.22 76.98 202.72 76.98 201.95C76.98 198.37 77.1 192.99 77.34 185.82C77.58 178.65 77.7 173.27 77.7 169.69C77.7 165.43 77.51 160.08 77.12 153.63C76.54 143.67 76.23 138.31 76.2 137.57L76.15 136.99C76.12 136.18 76.6 135.78 77.6 135.78C79.99 135.78 83.59 135.83 88.41 135.92C93.23 136.02 96.85 136.07 99.27 136.07C101.85 136.07 105.73 135.88 110.9 135.49C116.07 135.1 119.95 134.91 122.53 134.91C124.14 134.91 125.04 135.57 125.24 136.89C125.24 138.28 125.3 140.36 125.43 143.13C125.49 143.84 125.7 145.21 126.06 147.24C126.38 149.01 126.54 150.38 126.54 151.35L126.56 151.36Z" fill="white"/>
<path d="M151.91 167.71C151.91 171.52 152.01 177.24 152.2 184.88C152.39 192.52 152.49 198.25 152.49 202.05C152.49 202.7 152.35 203.1 152.06 203.26C151.99 203.29 151.58 203.36 150.8 203.45C148.7 203.71 145.9 203.84 142.38 203.84C137.67 203.84 134.67 203.71 133.38 203.45C132.44 203.26 131.98 202.76 131.98 201.95C131.98 202.47 132.12 199.63 132.42 193.44C133 180.38 133.29 171.8 133.29 167.71C133.29 164.26 133.18 159.08 132.95 152.18C132.72 145.28 132.61 140.1 132.61 136.65C132.61 135.94 132.98 135.59 133.72 135.59C134.72 135.59 136.23 135.64 138.24 135.74C140.25 135.84 141.76 135.89 142.76 135.89C143.76 135.89 145.23 135.84 147.19 135.74C149.14 135.64 150.62 135.59 151.62 135.59C152.55 135.59 153.02 135.95 153.02 136.65C153.02 140.1 152.83 145.28 152.46 152.18C152.09 159.08 151.9 164.26 151.9 167.71H151.91Z" fill="white"/>
<path d="M218.27 192.53C218.27 193.05 217.93 193.72 217.25 194.56C211.32 201.62 203.43 205.15 193.6 205.15C183.77 205.15 175.38 201.72 169.12 194.85C163.03 188.21 159.98 179.82 159.98 169.7C159.98 159.58 162.96 151.58 168.93 144.74C175.15 137.58 183.07 134 192.68 134C203.13 134 211.32 137.21 217.25 143.63C217.89 144.34 218.22 144.97 218.22 145.52C218.22 146.13 217.1 148.41 214.86 152.34C212.62 156.27 211.21 158.48 210.63 158.97C210.37 159.23 210.05 159.36 209.66 159.36C209.5 159.36 208.69 158.72 207.24 157.43C205.5 155.88 203.79 154.67 202.11 153.8C199.56 152.51 196.92 151.87 194.18 151.87C189.44 151.87 185.65 153.64 182.81 157.19C180.2 160.48 178.89 164.54 178.89 169.38C178.89 174.22 180.2 178.39 182.81 181.71C185.65 185.32 189.44 187.13 194.18 187.13C196.98 187.13 199.65 186.52 202.16 185.29C203.8 184.48 205.48 183.36 207.19 181.9C208.61 180.68 209.4 180.06 209.56 180.06C209.88 180.06 210.2 180.24 210.53 180.59C211.05 181.17 212.45 183.19 214.74 186.64C217.09 190.22 218.27 192.19 218.27 192.54V192.53Z" fill="white"/>
<path d="M243.13 167.71C243.13 171.52 243.23 177.24 243.42 184.88C243.61 192.52 243.71 198.25 243.71 202.05C243.71 202.7 243.56 203.1 243.28 203.26C243.21 203.29 242.8 203.36 242.02 203.45C239.92 203.71 237.12 203.84 233.6 203.84C228.89 203.84 225.89 203.71 224.6 203.45C223.66 203.26 223.2 202.76 223.2 201.95C223.2 202.47 223.34 199.63 223.64 193.44C224.22 180.38 224.51 171.8 224.51 167.71C224.51 164.26 224.4 159.08 224.17 152.18C223.95 145.28 223.83 140.1 223.83 136.65C223.83 135.94 224.2 135.59 224.94 135.59C225.94 135.59 227.45 135.64 229.46 135.74C231.47 135.84 232.98 135.89 233.98 135.89C234.98 135.89 236.45 135.84 238.41 135.74C240.36 135.64 241.84 135.59 242.84 135.59C243.77 135.59 244.24 135.95 244.24 136.65C244.24 140.1 244.05 145.28 243.68 152.18C243.31 159.08 243.12 164.26 243.12 167.71H243.13Z" fill="white"/>
<path d="M317.72 137.09C317.72 140.77 317.57 146.29 317.26 153.66C316.95 161.03 316.8 166.57 316.8 170.28V202.16C316.8 203.03 316.33 203.47 315.4 203.47C314.63 203.47 313.46 203.5 311.89 203.57C310.33 203.63 309.16 203.67 308.38 203.67C307.54 203.67 306.28 203.61 304.61 203.48C302.94 203.35 301.68 203.29 300.84 203.29C300.26 203.29 299.57 202.76 298.76 201.69C296.44 198.56 291.21 191.63 283.09 180.89C280.86 177.89 277.48 173.47 272.93 167.64C272.8 167.45 272.56 167.25 272.2 167.06C271.94 167.29 271.81 167.64 271.81 168.12C271.81 171.86 271.92 177.47 272.12 184.95C272.33 192.43 272.43 198.04 272.43 201.78C272.43 202.91 272 203.47 271.13 203.47H254.39C253.45 203.47 252.99 202.97 252.99 201.97C252.99 198.49 253.16 193.23 253.5 186.2C253.84 179.17 254.01 173.9 254.01 170.38C254.01 166.67 253.86 161.13 253.55 153.74C253.24 146.36 253.09 140.83 253.09 137.15C253.09 136.44 253.72 136.09 254.98 136.09C256.85 136.09 259.16 135.96 261.9 135.7C262.54 135.64 263.82 135.43 265.72 135.07C267.33 134.78 268.6 134.63 269.54 134.63C269.93 134.63 270.52 135.18 271.33 136.27L289.37 160.99C290.98 163.21 293.42 166.47 296.67 170.76C297.47 171.76 298.17 172.26 298.75 172.26C299.17 172.26 299.38 171 299.38 168.49C299.38 165.1 299.19 160.01 298.82 153.21C298.45 146.41 298.26 141.29 298.26 137.88C298.26 136.69 298.6 136.09 299.28 136.09C301.22 136.09 304.13 136.01 308.03 135.85C311.93 135.69 314.85 135.61 316.78 135.61C317.39 135.61 317.7 136.11 317.7 137.11L317.72 137.09Z" fill="white"/>
<path d="M75.04 296.31C75.04 297.35 74.55 297.87 73.58 297.87H55.76C54.79 297.87 54.3 297.28 54.3 296.11C54.3 292.72 54.43 287.64 54.68 280.86C54.93 274.08 55.06 269 55.06 265.61C55.06 264.64 54.91 264.12 54.61 264.05C54.24 264.25 51.99 269.44 47.87 279.6C45.45 285.57 43.04 291.53 40.62 297.47C40.28 298.24 39.86 298.69 39.36 298.83C39.19 298.86 38.52 298.88 37.35 298.88C35.6 298.88 34.56 298.54 34.23 297.87C32.42 294.18 30.04 288.81 27.08 281.76C23.93 274.31 21.56 268.93 19.98 265.6C19.91 265.43 19.76 265.25 19.53 265.05C19.3 265.35 19.18 265.84 19.18 266.51C19.18 269.8 19.26 274.73 19.43 281.31C19.6 287.89 19.68 292.82 19.68 296.11C19.68 297.29 19.21 297.87 18.27 297.87H1.46C0.79 297.87 0.38 297.76 0.23 297.54C0.08 297.32 0 296.94 0 296.41C0 292.75 0.18 287.26 0.53 279.93C0.88 272.6 1.06 267.11 1.06 263.45C1.06 259.56 0.89 252.26 0.56 241.56C0.53 238.78 0.38 234.63 0.11 229.13L0.06 228.27C0.03 227.6 0.73 227.26 2.17 227.26C4.02 227.26 6.78 227.2 10.47 227.08C14.16 226.96 16.93 226.9 18.78 226.9C19.15 226.9 19.67 227.6 20.34 229.01L35.04 261.27C36.08 263.45 36.95 264.54 37.66 264.54C38.03 264.54 38.82 263.28 40.03 260.76C43.42 253.71 48.44 243.09 55.08 228.9C55.65 227.59 56.27 226.94 56.94 226.94C57.91 226.94 59.38 226.99 61.34 227.09C63.3 227.19 64.79 227.24 65.79 227.24C66.63 227.24 67.91 227.16 69.64 226.99C71.37 226.82 72.65 226.74 73.49 226.74C74.5 226.74 75 227.14 75 227.95C75 231.91 74.86 237.82 74.57 245.69C74.28 253.56 74.14 259.47 74.14 263.43C74.14 267.09 74.29 272.57 74.59 279.89C74.89 287.21 75.04 292.67 75.04 296.3V296.31Z" fill="white"/>
<path d="M150.79 296.62C150.79 297.22 150.37 297.64 149.53 297.88C148.52 298.15 145.4 298.28 140.17 298.28C135.37 298.28 132.28 298.15 130.91 297.88C129.77 297.65 129.05 296.89 128.75 295.61C127.61 290.78 126.72 288.2 126.08 287.86C125.54 287.63 121.05 287.51 112.59 287.51C106.89 287.51 103.85 287.66 103.48 287.96C102.91 288.5 102.27 290.29 101.57 293.35C100.93 296.14 100.16 297.65 99.2501 297.88C98.1101 298.15 94.2801 298.28 87.7701 298.28C82.6401 298.28 80.0701 297.79 80.0701 296.82C80.0701 295.95 83.8601 285.23 91.4401 264.66C99.6601 242.41 104.12 230.18 104.83 227.97C105.23 226.69 105.7 226.06 106.24 226.06C107.15 226.06 108.55 226.14 110.44 226.31C112.33 226.48 113.75 226.56 114.69 226.56C115.63 226.56 116.93 226.5 118.69 226.38C120.45 226.26 121.77 226.2 122.64 226.2C123.28 226.2 123.87 226.75 124.4 227.86C126.04 231.38 130.84 243.46 138.79 264.1C146.77 284.87 150.77 295.71 150.77 296.61L150.79 296.62ZM105.8 225.75C105.16 225.78 104.84 225.43 104.84 224.69C104.84 224.42 104.87 224 104.94 223.43C105.01 222.86 105.04 222.42 105.04 222.12C105.04 221.72 104.98 221.1 104.86 220.26C104.74 219.42 104.68 218.8 104.68 218.4C104.68 217.93 105.03 217.56 105.74 217.29C107.38 216.65 110.57 214.99 115.3 212.31C117.35 210.83 120.45 208.64 124.61 205.72C124.81 205.55 125.15 205.39 125.62 205.22C125.85 205.29 126.14 205.45 126.48 205.72C127.25 206.53 128.48 207.67 130.15 209.14C131.09 209.68 132.47 210.53 134.28 211.71C134.82 212.08 135.08 212.41 135.08 212.72C135.08 212.99 134.85 213.34 134.38 213.78C131.43 216.57 127 219.21 121.09 221.71C115.18 224.21 110.24 225.56 106.24 225.76H105.79L105.8 225.75ZM115.11 250.76C114.41 252.24 113.21 255.44 111.54 260.37C109.73 265.6 108.82 268.67 108.82 269.58C108.82 270.18 109.83 270.52 111.84 270.59C112.88 270.66 114.59 270.69 116.97 270.69C119.18 270.69 120.41 270.42 120.64 269.89C120.71 269.72 120.74 269.49 120.74 269.19C120.74 268.08 119.97 265.03 118.43 260.03C116.92 255.2 115.81 252.11 115.11 250.77V250.76Z" fill="white"/>
<path d="M222.16 296.26C222.23 297.17 221.76 297.62 220.75 297.62C220.11 297.62 218.27 297.25 215.24 296.51C212.21 295.77 210.33 295.27 209.63 295C202.62 297.75 195.89 299.13 189.45 299.13C179.08 299.13 170.58 295.68 163.93 288.76C157.35 281.95 154.07 273.34 154.07 262.94C154.07 252.54 157.26 243.48 163.63 236.47C170.21 229.22 178.75 225.6 189.25 225.6C194.35 225.6 199.15 226.57 203.64 228.52C208.5 230.67 212.33 233.69 215.11 237.58C215.68 238.39 215.97 238.96 215.97 239.29C215.97 240.36 214.47 242.77 211.47 246.51C208.47 250.25 206.53 252.12 205.66 252.12C205.46 252.12 204.69 251.43 203.35 250.06C201.71 248.42 200.03 247.14 198.32 246.24C195.77 244.86 192.95 244.18 189.86 244.18C184.83 244.18 180.83 246.06 177.88 249.82C175.13 253.28 173.75 257.59 173.75 262.76C173.75 268.23 175.18 272.56 178.03 275.75C180.98 279.04 185.16 280.68 190.56 280.68C193.98 280.68 197.81 279.82 202.03 278.11C201.93 277 201.63 274.18 201.12 269.65C200.68 266.16 200.47 263.34 200.47 261.19C200.47 260.55 200.69 260.17 201.12 260.03C201.29 259.96 201.56 259.93 201.93 259.93C202.9 259.93 204.37 260.02 206.33 260.21C208.29 260.39 209.78 260.49 210.78 260.49C211.85 260.49 213.46 260.41 215.61 260.26C217.76 260.11 219.37 260.03 220.44 260.03C221.28 260.03 221.7 260.58 221.7 261.69C221.7 263.3 221.61 265.73 221.42 268.99C221.24 272.25 221.14 274.68 221.14 276.29C221.14 280.62 221.46 287.09 222.1 295.72L222.15 296.27L222.16 296.26Z" fill="white"/>
<path d="M249.64 260.68C249.64 264.64 249.74 270.59 249.94 278.55C250.14 286.5 250.24 292.46 250.24 296.42C250.24 297.09 250.09 297.51 249.79 297.68C249.72 297.71 249.29 297.78 248.48 297.88C246.3 298.15 243.38 298.28 239.72 298.28C234.82 298.28 231.7 298.15 230.36 297.88C229.39 297.68 228.9 297.16 228.9 296.32C228.9 296.86 229.05 293.9 229.35 287.46C229.95 273.87 230.26 264.95 230.26 260.68C230.26 257.09 230.14 251.7 229.91 244.52C229.68 237.34 229.56 231.95 229.56 228.36C229.56 227.62 229.95 227.25 230.72 227.25C231.76 227.25 233.33 227.3 235.43 227.4C237.53 227.5 239.1 227.55 240.14 227.55C241.18 227.55 242.71 227.5 244.75 227.4C246.78 227.3 248.31 227.25 249.36 227.25C250.33 227.25 250.82 227.62 250.82 228.36C250.82 231.95 250.63 237.34 250.24 244.52C249.85 251.7 249.66 257.09 249.66 260.68H249.64Z" fill="white"/>
<path d="M318.69 286.5C318.69 287.04 318.34 287.74 317.63 288.61C311.46 295.96 303.25 299.63 293.02 299.63C282.79 299.63 274.06 296.06 267.55 288.91C261.21 282 258.04 273.27 258.04 262.74C258.04 252.21 261.14 243.88 267.35 236.77C273.82 229.32 282.06 225.6 292.06 225.6C302.93 225.6 311.45 228.94 317.63 235.62C318.3 236.36 318.64 237.01 318.64 237.58C318.64 238.22 317.47 240.58 315.14 244.68C312.81 248.77 311.34 251.07 310.74 251.58C310.47 251.85 310.14 251.98 309.73 251.98C309.56 251.98 308.72 251.31 307.21 249.97C305.4 248.36 303.62 247.1 301.88 246.19C299.23 244.85 296.48 244.18 293.62 244.18C288.69 244.18 284.74 246.03 281.79 249.72C279.07 253.14 277.71 257.37 277.71 262.4C277.71 267.43 279.07 271.78 281.79 275.23C284.74 278.99 288.69 280.87 293.62 280.87C296.54 280.87 299.31 280.23 301.93 278.96C303.64 278.12 305.39 276.95 307.16 275.44C308.64 274.17 309.46 273.53 309.63 273.53C309.97 273.53 310.3 273.71 310.64 274.08C311.18 274.68 312.64 276.78 315.02 280.37C317.47 284.1 318.69 286.14 318.69 286.51V286.5Z" fill="white"/>
<path d="M390.52 296.62C390.52 297.22 390.1 297.64 389.26 297.88C388.25 298.15 385.13 298.28 379.9 298.28C375.1 298.28 372.01 298.15 370.64 297.88C369.5 297.65 368.78 296.89 368.48 295.61C367.34 290.78 366.45 288.2 365.81 287.86C365.27 287.63 360.78 287.51 352.32 287.51C346.62 287.51 343.58 287.66 343.21 287.96C342.64 288.5 342 290.29 341.3 293.35C340.66 296.14 339.89 297.65 338.99 297.88C337.85 298.15 334.02 298.28 327.51 298.28C322.38 298.28 319.81 297.79 319.81 296.82C319.81 295.95 323.6 285.23 331.18 264.66C339.4 242.41 343.86 230.18 344.57 227.97C344.97 226.69 345.44 226.06 345.98 226.06C346.89 226.06 348.29 226.14 350.18 226.31C352.08 226.48 353.49 226.56 354.43 226.56C355.37 226.56 356.67 226.5 358.43 226.38C360.19 226.26 361.51 226.2 362.38 226.2C363.02 226.2 363.6 226.75 364.14 227.86C365.78 231.38 370.58 243.46 378.53 264.1C386.52 284.87 390.51 295.71 390.51 296.61L390.52 296.62ZM354.83 250.76C354.12 252.24 352.93 255.44 351.26 260.37C349.45 265.6 348.54 268.67 348.54 269.58C348.54 270.18 349.55 270.52 351.56 270.59C352.6 270.66 354.31 270.69 356.69 270.69C358.91 270.69 360.13 270.42 360.36 269.89C360.43 269.72 360.46 269.49 360.46 269.19C360.46 268.08 359.69 265.03 358.14 260.03C356.63 255.2 355.52 252.11 354.82 250.77L354.83 250.76Z" fill="white"/>
</g>
<defs>
<clipPath id="clip0_108_3">
<rect width="390.52" height="299.64" fill="white"/>
</clipPath>
</defs>
</svg>
