<svg width="247" height="65" viewBox="0 0 247 65" fill="none" xmlns="http://www.w3.org/2000/svg">
<path d="M27.2625 14.1265C27.2625 18.0972 26.008 21.4246 23.499 24.1125C20.9392 26.836 17.7034 28.1977 13.7836 28.1977C9.8638 28.1977 6.65528 26.8241 4.08769 24.0731C1.56699 21.3891 0.308594 18.0735 0.308594 14.1265C0.308594 10.1794 1.56699 6.84024 4.08769 4.14045C6.65919 1.38147 9.89116 0 13.7875 0C17.6838 0 20.8806 1.38147 23.4639 4.1444C25.9963 6.86787 27.2625 10.1952 27.2625 14.1304V14.1265ZM20.099 14.091C20.099 12.1806 19.5245 10.5584 18.3795 9.22425C17.1836 7.82305 15.6516 7.12442 13.7875 7.12442C11.9233 7.12442 10.5047 7.85068 9.26978 9.29925C8.07391 10.7004 7.47207 12.3108 7.47207 14.1304C7.47207 16.0763 8.03092 17.6986 9.15253 18.9971C10.3367 20.3589 11.8804 21.0417 13.7836 21.0417C15.5618 21.0417 17.0742 20.3234 18.3208 18.8827C19.505 17.5091 20.099 15.9106 20.099 14.091Z" fill="black"/>
<path d="M152.762 27.0135C152.762 27.2425 152.606 27.4003 152.289 27.4911C151.91 27.5937 150.738 27.645 148.772 27.645C146.971 27.645 145.81 27.5937 145.294 27.4911C144.864 27.4003 144.594 27.1161 144.481 26.6307C144.051 24.7992 143.719 23.8164 143.481 23.6901C143.277 23.6033 141.589 23.5559 138.416 23.5559C136.274 23.5559 135.133 23.6112 134.996 23.7256C134.781 23.9309 134.543 24.6098 134.277 25.7702C134.039 26.828 133.75 27.4003 133.41 27.4872C132.98 27.5898 131.545 27.6411 129.099 27.6411C127.172 27.6411 126.207 27.4556 126.207 27.0885C126.207 26.757 127.63 22.6915 130.479 14.8882C133.566 6.44939 135.242 1.81161 135.508 0.970886C135.661 0.485399 135.836 0.244629 136.036 0.244629C136.376 0.244629 136.903 0.276205 137.615 0.339358C138.326 0.402511 138.857 0.434087 139.213 0.434087C139.569 0.434087 140.053 0.410405 140.714 0.366987C141.374 0.32357 141.871 0.299888 142.199 0.299888C142.437 0.299888 142.66 0.509081 142.859 0.931416C143.477 2.26947 145.278 6.84804 148.264 14.679C151.262 22.5573 152.762 26.6701 152.762 27.0135ZM139.362 9.62282C139.096 10.1833 138.65 11.399 138.021 13.2699C137.341 15.2553 137.001 16.4196 137.001 16.763C137.001 16.992 137.38 17.1183 138.134 17.1459C138.525 17.1735 139.166 17.1854 140.061 17.1854C140.894 17.1854 141.351 17.0827 141.441 16.8814C141.464 16.8183 141.48 16.7275 141.48 16.613C141.48 16.1947 141.191 15.0342 140.608 13.1396C140.042 11.3082 139.627 10.1359 139.362 9.62677V9.62282Z" fill="black"/>
<path d="M204.97 24.381C204.767 25.0402 204.962 25.6283 205.22 26.4138C205.537 27.3729 205.826 27.6137 206.729 29.2122C207.417 30.424 207.757 31.0318 207.987 31.7541C208.351 32.8988 208.163 33.179 208.491 34.296C208.593 34.6434 208.937 35.7801 209.75 36.8379C210.058 37.2405 211.731 39.4193 214.279 39.3798C214.627 39.3759 215.995 39.3522 217.05 38.3615C217.824 37.6352 218.027 36.7669 218.308 35.563C218.734 33.7513 218.613 32.2672 218.559 31.7502C218.453 30.72 218.218 28.7109 216.796 26.6664C215.186 24.3455 213.056 23.4337 212.267 23.1061C211.118 22.6325 209.046 21.776 206.979 22.597C206.545 22.7667 205.31 23.2601 204.966 24.3771L204.97 24.381Z" fill="black" stroke="black" stroke-width="0.747126" stroke-miterlimit="10"/>
<path d="M225.738 32.1369C226.972 31.5725 229.274 30.5147 230.017 28.8332C230.806 27.0452 229.821 24.8822 228.004 22.2219C222.466 14.1186 215.166 10.5268 215.166 10.5268C200.953 3.53661 186.52 8.95196 184.457 9.76505C181.1 11.0834 172.643 14.5449 168.094 22.9837C166.14 26.6071 164.006 32.8277 166.331 35.188C167.683 36.5616 169.305 35.3696 171.365 36.9681C174.241 39.2021 172.99 43.015 175.644 44.8504C176.785 45.6398 177.801 45.4503 180.678 45.3595C186 45.1859 180.166 45.845 191.249 45.6121C205.146 45.324 204.032 44.507 209.625 44.8504C216.561 45.2767 221.251 46.7213 222.209 44.8504C222.619 44.0531 221.884 43.5557 221.454 40.781C221.165 38.914 220.587 35.1683 222.463 33.4079C223.275 32.6461 223.658 33.0882 225.734 32.1369H225.738Z" stroke="black" stroke-width="3.73563" stroke-miterlimit="10"/>
<path d="M165.706 22.8573C164.373 22.5337 163.72 20.8325 162.935 18.7879C162.435 17.4854 161.587 14.5646 162.685 11.1622C163.896 7.40462 166.679 5.54951 167.468 5.06008C170.56 3.15365 173.569 3.39442 175.019 3.53652C176.218 3.65098 180.076 4.022 182.065 6.8402C182.444 7.377 183.03 8.22956 182.819 9.12948C182.452 10.7083 179.904 11.2372 178.54 11.6714C170.888 14.1146 169.094 23.6823 165.702 22.8573H165.706Z" fill="black" stroke="black" stroke-width="3.73563" stroke-miterlimit="10"/>
<path d="M215.041 8.62044C215.084 6.17327 218.648 4.38131 220.329 3.78925C225.546 1.95387 232.045 4.83917 234.675 9.89139C236.5 13.3964 236.481 17.9828 234.425 21.0773C234.21 21.401 232.377 24.156 230.396 23.8758C228.793 23.6469 228.102 21.5786 227.125 19.8064C222.998 12.3307 214.978 12.3109 215.041 8.62044Z" fill="black" stroke="black" stroke-width="3.73563" stroke-miterlimit="10"/>
<path d="M164.193 35.5667C162.263 35.1562 160.844 34.8523 159.16 35.0575C158.468 35.1404 155.349 35.5233 153.118 38.1086C150.691 40.9228 150.335 45.1738 151.859 48.0236C151.98 48.2525 153.473 50.9681 155.13 50.822C155.982 50.747 156.385 49.9576 157.397 50.0603C158.085 50.1274 158.237 50.526 159.16 51.0786C159.398 51.2207 161.708 52.5982 162.935 51.8404C163.912 51.2365 163.677 49.6024 164.193 49.5511C164.697 49.4998 164.775 51.0707 165.956 51.8404C167.163 52.6298 169.203 52.3653 169.985 51.3312C170.63 50.4786 170.079 49.5353 170.739 49.0419C171.396 48.5564 172.154 49.3261 173.256 49.0419C174.421 48.7419 175.358 47.4236 175.523 46.2435C175.605 45.6435 175.523 44.8344 172.502 41.1597C170.536 38.7677 169.528 37.556 168.222 36.8376C167.003 36.1666 165.963 35.9456 164.193 35.5667Z" fill="black" stroke="black" stroke-width="3.73563" stroke-miterlimit="10"/>
<path d="M231.4 29.212C232.19 29.1805 232.377 30.3685 233.413 30.483C234.316 30.5817 234.464 29.7133 235.68 29.4647C237.04 29.1884 238.704 29.8988 239.455 30.9882C239.717 31.3671 239.677 31.5211 239.959 31.75C240.709 32.3736 241.51 31.7184 242.73 32.0026C243.945 32.2868 244.875 33.3407 245.246 34.2919C245.407 34.7024 245.442 35.1642 245.497 36.072C245.586 37.4653 245.516 38.5152 245.497 38.8705C245.293 42.482 246.2 43.3662 245.497 44.2108C244.801 45.0437 243.488 44.6845 240.713 44.4634C240.713 44.4634 238.157 44.2621 233.413 44.4634C227.633 44.7082 225.655 45.9278 224.1 44.4634C223.443 43.8438 223.24 43.0346 222.842 41.4124C222.517 40.0941 221.65 36.5851 223.346 34.8011C223.557 34.58 223.502 34.7063 226.367 33.2775C228.696 32.1131 228.93 31.9355 229.137 31.7539C230.552 30.4988 230.595 29.2476 231.404 29.212H231.4Z" fill="black" stroke="black" stroke-width="3.73563" stroke-miterlimit="10"/>
<path d="M227.125 42.5848C227.144 41.5862 227.117 41.1007 227.125 40.9073C227.18 39.5298 229.626 38.247 229.896 38.1088C233.218 36.4037 236.621 37.647 237.098 37.8286C239.357 38.693 240.694 40.256 240.698 40.9073C240.698 40.9507 240.698 41.3809 240.698 42.0282C240.698 42.569 240.702 42.565 240.698 42.5887C240.498 43.3347 237.118 42.6519 233.773 42.869C230.337 43.0939 227.508 44.2307 227.125 43.4294C227.086 43.3505 227.109 43.3268 227.125 42.5887V42.5848Z" fill="#F2F2F2" stroke="black" stroke-width="2.24138" stroke-miterlimit="10"/>
<path d="M226.117 37.3469C227.09 37.3469 227.879 36.5499 227.879 35.5667C227.879 34.5836 227.09 33.7866 226.117 33.7866C225.143 33.7866 224.354 34.5836 224.354 35.5667C224.354 36.5499 225.143 37.3469 226.117 37.3469Z" fill="white" stroke="black" stroke-width="0.747126" stroke-miterlimit="10"/>
<path d="M231.275 35.0615C232.18 35.0615 232.913 34.3211 232.913 33.4077C232.913 32.4943 232.18 31.7539 231.275 31.7539C230.371 31.7539 229.638 32.4943 229.638 33.4077C229.638 34.3211 230.371 35.0615 231.275 35.0615Z" fill="white" stroke="black" stroke-width="0.747126" stroke-miterlimit="10"/>
<path d="M208.999 27.9412C209.556 27.9412 210.007 27.4853 210.007 26.9229C210.007 26.3605 209.556 25.9045 208.999 25.9045C208.442 25.9045 207.991 26.3605 207.991 26.9229C207.991 27.4853 208.442 27.9412 208.999 27.9412Z" fill="white" stroke="black" stroke-width="0.747126" stroke-miterlimit="10"/>
<path d="M194.149 29.2122C195.012 28.8491 195.731 29.0701 196.665 29.2122C196.771 29.228 198.33 29.224 201.449 29.2122C202.91 29.2083 203.672 29.2004 204.47 29.7214C204.755 29.9069 205.396 30.3292 205.478 30.9923C205.591 31.9317 204.513 32.8238 203.969 33.2816C203.907 33.3329 203.954 33.2935 202.961 34.0434C201.969 34.7973 201.996 34.7815 201.953 34.8052C201.433 35.1091 200.769 35.1762 199.436 35.3143C199.006 35.3578 198.557 35.3854 198.017 35.3617C198.017 35.3617 197.713 35.3459 197.423 35.3143C196.005 35.1486 194.524 34.3631 194.403 34.296C193.207 33.6526 192.613 33.329 192.39 32.7724C191.925 31.6081 192.808 30.3529 192.894 30.2305C193.386 29.5477 194.02 29.2714 194.152 29.2122H194.149Z" fill="#0F0303" stroke="black" stroke-width="0.747126" stroke-miterlimit="10"/>
<path d="M197.924 35.567C197.775 35.7525 197.838 35.9381 197.924 36.838C198.053 38.2195 197.971 38.4879 197.924 38.6181C197.689 39.2378 197.095 39.5417 196.915 39.6364C195.106 40.5679 192.62 38.7286 192.386 39.1273C192.226 39.3996 193.336 40.3509 193.394 40.3982C193.644 40.6114 194.047 40.9429 194.653 41.16C195.012 41.2903 196.083 41.606 197.169 41.16C198.135 40.7614 198.264 40.1101 198.932 40.1417C199.463 40.1693 199.522 40.5877 200.19 40.9034C201.484 41.5192 202.985 40.7614 203.211 40.6508C204.36 40.0746 205.087 39.0128 204.974 38.8707C204.884 38.7602 204.345 39.2891 203.211 39.6325C202.605 39.818 201.472 40.1614 200.44 39.6325C200.253 39.5378 199.659 39.2299 199.432 38.6142C199.35 38.3892 199.358 38.2313 199.432 37.3432C199.549 35.9341 199.585 35.7447 199.432 35.5631C199.104 35.1684 198.225 35.1802 197.924 35.5631V35.567Z" fill="#0F0303" stroke="black" stroke-width="0.747126" stroke-miterlimit="10"/>
<path d="M191.378 23.1101C191.135 22.8812 190.666 22.5299 189.365 22.3484C188.548 22.2339 186.676 21.9931 184.581 22.8575C180.963 24.3535 179.587 27.9453 179.294 28.7031C178.407 31.02 178.59 32.9422 178.79 35.0579C178.907 36.3012 179.106 36.9801 179.544 37.5998C180.626 39.1352 182.495 39.3483 182.815 39.3799C184.804 39.5733 186.211 38.4207 186.59 38.1089C186.934 37.8287 188.306 36.6327 188.603 34.8053C188.767 33.8027 188.486 33.3527 188.853 32.2634C189.025 31.7621 189.091 31.8371 189.861 30.4832C190.67 29.0623 190.639 28.9044 191.37 27.6848C191.975 26.6783 192.018 26.7454 192.124 26.4138C192.456 25.3679 192.257 23.9469 191.37 23.1101H191.378Z" fill="black" stroke="black" stroke-width="0.747126" stroke-miterlimit="10"/>
<path d="M188.611 27.4319C189.168 27.4319 189.619 27.0343 189.619 26.5438C189.619 26.0534 189.168 25.6558 188.611 25.6558C188.054 25.6558 187.603 26.0534 187.603 26.5438C187.603 27.0343 188.054 27.4319 188.611 27.4319Z" fill="white" stroke="black" stroke-width="0.747126" stroke-miterlimit="10"/>
<path d="M208.874 29.2121C210.055 29.2121 211.012 28.2455 211.012 27.0531C211.012 25.8607 210.055 24.894 208.874 24.894C207.693 24.894 206.736 25.8607 206.736 27.0531C206.736 28.2455 207.693 29.2121 208.874 29.2121Z" fill="white" stroke="black" stroke-width="0.747126" stroke-miterlimit="10"/>
<path d="M49.6088 6.93113C49.6088 7.07322 49.4837 7.14032 49.2297 7.14032C48.2839 7.14032 46.8497 7.05743 44.9308 6.89166C43.0081 6.72588 41.5699 6.64299 40.6124 6.64299C39.4009 6.64299 38.6975 6.68641 38.4942 6.77719C38.0292 6.99428 37.7947 7.60607 37.7947 8.60862C37.7947 9.81642 38.0956 10.5072 38.7014 10.669C38.9515 10.7321 39.3384 10.7637 39.8542 10.7637C40.7218 10.7637 42.0232 10.7163 43.7584 10.6216C45.4897 10.5269 46.7911 10.4795 47.6626 10.4795C48.0768 10.4795 48.2878 11.6005 48.2878 13.8385C48.2878 15.7844 48.2175 16.9172 48.0807 17.2369C47.9908 17.4658 47.8228 17.5803 47.5688 17.5803C47.7329 17.5803 47.3343 17.5368 46.3768 17.4461C45.0285 17.3198 42.9885 17.2566 40.2529 17.2566C39.3696 17.2566 38.8733 17.2645 38.76 17.2763C38.1191 17.379 37.7947 17.6513 37.7947 18.0973C37.7947 19.9051 37.869 21.9852 38.0214 24.3416C38.1464 26.469 38.209 27.4163 38.209 27.1874C38.209 27.5189 37.8103 27.7084 37.017 27.7597C37.2319 27.7479 36.6692 27.74 35.3365 27.74C32.98 27.74 31.4597 27.6571 30.7797 27.4913C30.4124 27.4005 30.2326 27.2032 30.2326 26.8992C30.2326 25.4862 30.2795 23.3627 30.3733 20.5327C30.4671 17.7026 30.514 15.5791 30.514 14.1661C30.514 12.4846 30.4397 10.373 30.2873 7.82711C30.0606 3.89585 29.9395 1.78023 29.9278 1.48815L29.9082 1.25922C29.8965 0.939508 30.0841 0.781626 30.4749 0.781626C31.4089 0.781626 32.8158 0.801361 34.6995 0.836884C36.5832 0.876355 37.9979 0.89609 38.9437 0.89609C39.9519 0.89609 41.4683 0.821096 43.4887 0.667161C45.5092 0.513226 47.0255 0.438232 48.0338 0.438232C48.663 0.438232 49.0147 0.698738 49.0929 1.21975C49.0929 1.76839 49.1163 2.58937 49.1672 3.68271C49.1906 3.96295 49.2727 4.50369 49.4134 5.30494C49.5384 6.00357 49.6009 6.54432 49.6009 6.92718L49.6088 6.93113Z" fill="black"/>
<path d="M59.5119 13.3845C59.5119 14.8883 59.551 17.146 59.6252 20.1615C59.6995 23.1771 59.7386 25.4388 59.7386 26.9386C59.7386 27.1952 59.6839 27.3531 59.5705 27.4162C59.5432 27.4281 59.3829 27.4557 59.0781 27.4912C58.2574 27.5938 57.1632 27.6452 55.7875 27.6452C53.9468 27.6452 52.7744 27.5938 52.2703 27.4912C51.9029 27.4162 51.7231 27.2189 51.7231 26.8992C51.7231 27.1044 51.7779 25.9834 51.8951 23.5402C52.1218 18.3854 52.2351 14.9988 52.2351 13.3845C52.2351 12.0227 52.1921 9.97816 52.1022 7.2547C52.0123 4.53123 51.9693 2.48666 51.9693 1.12493C51.9693 0.84469 52.1139 0.706543 52.4031 0.706543C52.7939 0.706543 53.3841 0.726278 54.1696 0.765749C54.9551 0.805219 55.5452 0.824954 55.936 0.824954C56.3268 0.824954 56.9013 0.805219 57.6673 0.765749C58.4294 0.726278 59.0078 0.706543 59.3986 0.706543C59.762 0.706543 59.9457 0.848637 59.9457 1.12493C59.9457 2.48666 59.8714 4.53123 59.7269 7.2547C59.5823 9.97816 59.508 12.0227 59.508 13.3845H59.5119Z" fill="black"/>
<path d="M85.4495 23.177C85.4495 23.3823 85.3166 23.6467 85.0509 23.9783C82.7334 26.7649 79.65 28.1582 75.8083 28.1582C71.9667 28.1582 68.6878 26.8044 66.2414 24.0927C63.8614 21.4719 62.6694 18.1603 62.6694 14.1659C62.6694 10.1715 63.834 7.01386 66.1671 4.31408C68.598 1.488 71.6931 0.0749512 75.4488 0.0749512C79.5327 0.0749512 82.7334 1.34195 85.0509 3.87596C85.301 4.1562 85.43 4.40486 85.43 4.62195C85.43 4.86272 84.9923 5.76265 84.1169 7.31384C83.2415 8.86503 82.6904 9.73733 82.4638 9.93073C82.3621 10.0334 82.2371 10.0847 82.0847 10.0847C82.0221 10.0847 81.7056 9.83206 81.1389 9.32289C80.4589 8.7111 79.7906 8.2335 79.1341 7.89011C78.1375 7.38094 77.1058 7.12833 76.035 7.12833C74.1826 7.12833 72.7014 7.82696 71.5915 9.22816C70.5715 10.5267 70.0596 12.1292 70.0596 14.0396C70.0596 15.95 70.5715 17.5959 71.5915 18.9063C72.7014 20.3312 74.1826 21.0456 76.035 21.0456C77.1293 21.0456 78.1727 20.8049 79.1536 20.3194C79.7946 19.9997 80.4511 19.5576 81.1194 18.9813C81.6743 18.4998 81.9831 18.2551 82.0456 18.2551C82.1707 18.2551 82.2957 18.3261 82.4247 18.4643C82.6279 18.6932 83.175 19.4905 84.07 20.8522C84.9884 22.2653 85.4495 23.0428 85.4495 23.181V23.177Z" fill="black"/>
<path d="M95.1652 13.3845C95.1652 14.8883 95.2043 17.146 95.2786 20.1615C95.3528 23.1771 95.3919 25.4388 95.3919 26.9386C95.3919 27.1952 95.3333 27.3531 95.2239 27.4162C95.1965 27.4281 95.0363 27.4557 94.7314 27.4912C93.9107 27.5938 92.8165 27.6452 91.4408 27.6452C89.6001 27.6452 88.4277 27.5938 87.9236 27.4912C87.5562 27.4162 87.3765 27.2189 87.3765 26.8992C87.3765 27.1044 87.4312 25.9834 87.5484 23.5402C87.7751 18.3854 87.8884 14.9988 87.8884 13.3845C87.8884 12.0227 87.8454 9.97816 87.7555 7.2547C87.6696 4.53123 87.6227 2.48666 87.6227 1.12493C87.6227 0.84469 87.7673 0.706543 88.0565 0.706543C88.4473 0.706543 89.0374 0.726278 89.8229 0.765749C90.6084 0.805219 91.1985 0.824954 91.5894 0.824954C91.9802 0.824954 92.5546 0.805219 93.3206 0.765749C94.0827 0.726278 94.6611 0.706543 95.0519 0.706543C95.4153 0.706543 95.599 0.848637 95.599 1.12493C95.599 2.48666 95.5248 4.53123 95.3802 7.2547C95.2356 9.97816 95.1613 12.0227 95.1613 13.3845H95.1652Z" fill="black"/>
<path d="M124.312 1.29837C124.312 2.75088 124.253 4.92965 124.132 7.83863C124.011 10.7476 123.952 12.9343 123.952 14.3986V26.9818C123.952 27.3252 123.768 27.4989 123.405 27.4989C123.104 27.4989 122.647 27.5107 122.033 27.5383C121.423 27.562 120.966 27.5778 120.661 27.5778C120.333 27.5778 119.841 27.5541 119.188 27.5028C118.535 27.4515 118.043 27.4278 117.715 27.4278C117.488 27.4278 117.218 27.2186 116.902 26.7963C115.995 25.5609 113.951 22.8256 110.778 18.5864C109.906 17.4023 108.585 15.6577 106.807 13.3566C106.757 13.2816 106.663 13.2027 106.522 13.1277C106.42 13.2185 106.37 13.3566 106.37 13.5461C106.37 15.0223 106.413 17.2365 106.491 20.1889C106.573 23.1413 106.612 25.3556 106.612 26.8318C106.612 27.2778 106.444 27.4989 106.104 27.4989H99.5618C99.1944 27.4989 99.0146 27.3015 99.0146 26.9068C99.0146 25.5332 99.0811 23.4571 99.214 20.6823C99.3468 17.9075 99.4133 15.8275 99.4133 14.4381C99.4133 12.9737 99.3546 10.7871 99.2335 7.8702C99.1123 4.95728 99.0537 2.77456 99.0537 1.32205C99.0537 1.04181 99.2999 0.903662 99.7924 0.903662C100.523 0.903662 101.426 0.85235 102.497 0.749727C102.747 0.726044 103.247 0.643156 103.99 0.501063C104.619 0.386598 105.115 0.327393 105.482 0.327393C105.635 0.327393 105.865 0.54448 106.182 0.974709L113.232 10.7318C113.861 11.6081 114.815 12.8948 116.085 14.5881C116.398 14.9828 116.671 15.1801 116.898 15.1801C117.062 15.1801 117.144 14.6828 117.144 13.6921C117.144 12.354 117.07 10.345 116.925 7.66101C116.781 4.97702 116.706 2.95613 116.706 1.61018C116.706 1.14048 116.839 0.903662 117.105 0.903662C117.863 0.903662 119 0.872085 120.525 0.808933C122.049 0.74578 123.19 0.714203 123.944 0.714203C124.183 0.714203 124.304 0.911556 124.304 1.30626L124.312 1.29837Z" fill="black"/>
<path d="M29.3261 63.6896C29.3261 64.1001 29.1346 64.3053 28.7555 64.3053H21.7913C21.4123 64.3053 21.2208 64.0725 21.2208 63.6107C21.2208 62.2726 21.2716 60.2675 21.3693 57.5914C21.467 54.9153 21.5178 52.9102 21.5178 51.5722C21.5178 51.1893 21.4592 50.9841 21.3419 50.9564C21.1973 51.0354 20.318 53.0839 18.7079 57.0941C17.7621 59.4505 16.8203 61.8029 15.8745 64.1475C15.7417 64.4514 15.5775 64.629 15.3821 64.6843C15.3157 64.6961 15.0538 64.704 14.5966 64.704C13.9127 64.704 13.5063 64.5698 13.3773 64.3053C12.6699 62.8489 11.7398 60.7293 10.583 57.9466C9.35199 55.0061 8.42578 52.8826 7.80831 51.5682C7.78095 51.5011 7.72233 51.4301 7.63244 51.3511C7.54256 51.4695 7.49566 51.6629 7.49566 51.9274C7.49566 53.226 7.52693 55.1719 7.59336 57.769C7.6598 60.3662 7.69106 62.3121 7.69106 63.6107C7.69106 64.0764 7.50738 64.3053 7.14003 64.3053H0.570577C0.308737 64.3053 0.148506 64.2619 0.0898854 64.1751C0.0312645 64.0883 0 63.9383 0 63.7291C0 62.2845 0.0703451 60.1175 0.207127 57.2243C0.343909 54.3311 0.414254 52.1642 0.414254 50.7196C0.414254 49.1842 0.347817 46.3029 0.218851 42.0795C0.207127 40.9822 0.148506 39.3442 0.0429887 37.1733L0.0234484 36.8339C0.0117242 36.5694 0.285288 36.4352 0.848049 36.4352C1.57104 36.4352 2.64967 36.4115 4.09174 36.3642C5.53381 36.3168 6.61635 36.2931 7.33934 36.2931C7.48394 36.2931 7.68716 36.5694 7.949 37.126L13.6938 49.8591C14.1003 50.7196 14.4403 51.1498 14.7178 51.1498C14.8624 51.1498 15.1711 50.6525 15.644 49.6578C16.9688 46.8752 18.9306 42.6834 21.5256 37.0825C21.7484 36.5655 21.9907 36.3089 22.2525 36.3089C22.6316 36.3089 23.2061 36.3287 23.972 36.3681C24.738 36.4076 25.3203 36.4273 25.7111 36.4273C26.0394 36.4273 26.5396 36.3958 27.2157 36.3287C27.8918 36.2616 28.3921 36.23 28.7203 36.23C29.1151 36.23 29.3105 36.3879 29.3105 36.7076C29.3105 38.2706 29.2557 40.6033 29.1424 43.7096C29.0291 46.816 28.9744 49.1487 28.9744 50.7117C28.9744 52.1563 29.033 54.3193 29.1502 57.2085C29.2675 60.0978 29.3261 62.2529 29.3261 63.6857V63.6896Z" fill="black"/>
<path d="M58.9298 63.8077C58.9298 64.0445 58.7657 64.2103 58.4374 64.305C58.0427 64.4116 56.8233 64.4629 54.7794 64.4629C52.9036 64.4629 51.696 64.4116 51.1606 64.305C50.7151 64.2143 50.4337 63.9143 50.3164 63.4091C49.8709 61.5026 49.5231 60.4843 49.273 60.3501C49.0619 60.2593 47.3072 60.212 44.001 60.212C41.7734 60.212 40.5854 60.2712 40.4408 60.3896C40.218 60.6027 39.9679 61.3092 39.6943 62.517C39.4442 63.6183 39.1433 64.2143 38.7877 64.305C38.3421 64.4116 36.8453 64.4629 34.3012 64.4629C32.2964 64.4629 31.292 64.2695 31.292 63.8867C31.292 63.5433 32.7731 59.312 35.7355 51.1929C38.9479 42.4108 40.6909 37.5835 40.9684 36.7112C41.1247 36.206 41.3083 35.9573 41.5194 35.9573C41.875 35.9573 42.4221 35.9889 43.1608 36.056C43.8994 36.1231 44.4543 36.1547 44.8217 36.1547C45.1891 36.1547 45.6971 36.131 46.3849 36.0836C47.0727 36.0363 47.5886 36.0126 47.9286 36.0126C48.1787 36.0126 48.4093 36.2297 48.6164 36.6678C49.2573 38.0572 51.1332 42.8252 54.2401 50.9719C57.3588 59.1699 58.922 63.4485 58.922 63.8038L58.9298 63.8077ZM41.3474 35.835C41.0973 35.8468 40.9723 35.7087 40.9723 35.4166C40.9723 35.31 40.984 35.1442 41.0113 34.9193C41.0387 34.6943 41.0504 34.5206 41.0504 34.4022C41.0504 34.2443 41.027 33.9996 40.9801 33.6681C40.9332 33.3365 40.9097 33.0918 40.9097 32.9339C40.9097 32.7484 41.0465 32.6023 41.324 32.4958C41.9649 32.2432 43.2116 31.588 45.0601 30.5301C45.8612 29.946 47.0727 29.0816 48.6985 27.929C48.7767 27.8619 48.9095 27.7988 49.0932 27.7317C49.1831 27.7593 49.2964 27.8225 49.4293 27.929C49.7302 28.2488 50.2109 28.6987 50.8636 29.2789C51.2309 29.4921 51.7702 29.8276 52.4776 30.2933C52.6886 30.4394 52.7902 30.5696 52.7902 30.692C52.7902 30.7985 52.7003 30.9367 52.5167 31.1104C51.3638 32.2116 49.6325 33.2536 47.3229 34.2404C45.0132 35.2271 43.0826 35.76 41.5194 35.8389H41.3435L41.3474 35.835ZM44.9858 45.7105C44.7123 46.2947 44.2433 47.5577 43.5907 49.5036C42.8833 51.5679 42.5277 52.7797 42.5277 53.1388C42.5277 53.3757 42.9224 53.5099 43.7079 53.5375C44.1143 53.5651 44.7826 53.577 45.7127 53.577C46.5764 53.577 47.0571 53.4704 47.147 53.2612C47.1743 53.1941 47.1861 53.1033 47.1861 52.9849C47.1861 52.5468 46.8852 51.3429 46.2833 49.3694C45.6932 47.463 45.2594 46.2433 44.9858 45.7144V45.7105Z" fill="black"/>
<path d="M86.8214 63.6699C86.8488 64.0291 86.6651 64.2067 86.2704 64.2067C86.0203 64.2067 85.3012 64.0606 84.117 63.7686C82.9329 63.4765 82.1982 63.2791 81.9246 63.1726C79.1851 64.258 76.5549 64.8027 74.0381 64.8027C69.9855 64.8027 66.6636 63.4409 64.0648 60.7096C61.4933 58.0217 60.2114 54.6232 60.2114 50.5183C60.2114 46.4134 61.4581 42.8374 63.9475 40.0705C66.519 37.2089 69.8565 35.78 73.96 35.78C75.9531 35.78 77.829 36.1629 79.5837 36.9326C81.483 37.7812 82.9798 38.9732 84.0662 40.5086C84.289 40.8283 84.4023 41.0533 84.4023 41.1835C84.4023 41.6059 83.8161 42.5571 82.6437 44.0333C81.4713 45.5095 80.7131 46.2476 80.3731 46.2476C80.2949 46.2476 79.994 45.9753 79.4703 45.4345C78.8294 44.7872 78.1729 44.282 77.5046 43.9267C76.508 43.382 75.406 43.1136 74.1984 43.1136C72.2326 43.1136 70.6694 43.8557 69.5165 45.3398C68.4418 46.7055 67.9025 48.4066 67.9025 50.4473C67.9025 52.6063 68.4613 54.3154 69.5751 55.5745C70.728 56.8731 72.3616 57.5204 74.4719 57.5204C75.8085 57.5204 77.3053 57.1809 78.9545 56.506C78.9154 56.0679 78.7982 54.9548 78.5988 53.1668C78.4269 51.7893 78.3448 50.6762 78.3448 49.8276C78.3448 49.575 78.4308 49.425 78.5988 49.3697C78.6653 49.3421 78.7708 49.3303 78.9154 49.3303C79.2945 49.3303 79.869 49.3658 80.6349 49.4408C81.4009 49.5118 81.9832 49.5513 82.374 49.5513C82.7922 49.5513 83.4214 49.5197 84.2616 49.4605C85.1019 49.4013 85.7311 49.3697 86.1492 49.3697C86.4775 49.3697 86.6416 49.5868 86.6416 50.0249C86.6416 50.6604 86.6065 51.6195 86.5322 52.9063C86.4619 54.193 86.4228 55.1521 86.4228 55.7876C86.4228 57.4967 86.5478 60.0504 86.798 63.4567L86.8175 63.6738L86.8214 63.6699Z" fill="black"/>
<path d="M97.5609 49.6225C97.5609 51.1855 97.6 53.534 97.6781 56.6759C97.7563 59.8138 97.7954 62.1662 97.7954 63.7292C97.7954 63.9937 97.7367 64.1595 97.6195 64.2266C97.5921 64.2384 97.4241 64.266 97.1076 64.3055C96.2556 64.4121 95.1144 64.4634 93.6841 64.4634C91.7691 64.4634 90.5498 64.4121 90.0261 64.3055C89.6471 64.2266 89.4556 64.0213 89.4556 63.6898C89.4556 63.9029 89.5142 62.7346 89.6314 60.1927C89.8659 54.8286 89.9871 51.3079 89.9871 49.6225C89.9871 48.2055 89.9402 46.078 89.8503 43.244C89.7604 40.4101 89.7135 38.2826 89.7135 36.8656C89.7135 36.5735 89.8659 36.4275 90.1668 36.4275C90.5733 36.4275 91.1868 36.4472 92.0075 36.4867C92.8282 36.5262 93.4418 36.5459 93.8482 36.5459C94.2547 36.5459 94.8526 36.5262 95.6498 36.4867C96.4432 36.4472 97.0411 36.4275 97.4515 36.4275C97.8305 36.4275 98.022 36.5735 98.022 36.8656C98.022 38.2826 97.9478 40.4101 97.7954 43.244C97.643 46.078 97.5687 48.2055 97.5687 49.6225H97.5609Z" fill="black"/>
<path d="M124.546 59.8137C124.546 60.0268 124.409 60.3031 124.132 60.6465C121.721 63.5476 118.512 64.9961 114.514 64.9961C110.516 64.9961 107.104 63.587 104.56 60.7649C102.083 58.0375 100.844 54.5917 100.844 50.4355C100.844 46.2792 102.055 42.9913 104.482 40.185C107.011 37.2444 110.231 35.7761 114.139 35.7761C118.387 35.7761 121.717 37.0944 124.132 39.7311C124.394 40.0231 124.527 40.2797 124.527 40.5047C124.527 40.7573 124.069 41.6888 123.159 43.3071C122.248 44.9214 121.674 45.8293 121.439 46.0306C121.334 46.1371 121.205 46.1884 121.045 46.1884C120.978 46.1884 120.65 45.924 120.06 45.3951C119.352 44.7596 118.657 44.2623 117.977 43.9031C116.941 43.3742 115.866 43.1097 114.749 43.1097C112.822 43.1097 111.278 43.8399 110.125 45.2964C109.062 46.6463 108.531 48.3159 108.531 50.3013C108.531 52.2866 109.062 54.0036 110.125 55.3653C111.278 56.8494 112.822 57.5915 114.749 57.5915C115.89 57.5915 116.972 57.3389 117.996 56.8376C118.665 56.506 119.348 56.0442 120.04 55.4482C120.619 54.9469 120.939 54.6943 121.005 54.6943C121.138 54.6943 121.267 54.7654 121.4 54.9114C121.611 55.1482 122.182 55.9771 123.112 57.3941C124.069 58.8664 124.546 59.6716 124.546 59.8176V59.8137Z" fill="black"/>
<path d="M152.618 63.8081C152.618 64.045 152.454 64.2107 152.125 64.3055C151.731 64.412 150.511 64.4633 148.467 64.4633C146.592 64.4633 145.384 64.412 144.849 64.3055C144.403 64.2147 144.122 63.9147 144.004 63.4095C143.559 61.5031 143.211 60.4847 142.961 60.3505C142.75 60.2597 140.995 60.2124 137.689 60.2124C135.461 60.2124 134.273 60.2716 134.129 60.39C133.906 60.6031 133.656 61.3097 133.382 62.5175C133.132 63.6187 132.831 64.2147 132.48 64.3055C132.034 64.412 130.537 64.4633 127.993 64.4633C125.988 64.4633 124.984 64.2699 124.984 63.8871C124.984 63.5437 126.465 59.3124 129.427 51.1934C132.64 42.4112 134.383 37.5839 134.66 36.7117C134.817 36.2064 135 35.9578 135.211 35.9578C135.567 35.9578 136.114 35.9893 136.853 36.0564C137.595 36.1235 138.146 36.1551 138.514 36.1551C138.881 36.1551 139.389 36.1314 140.077 36.0841C140.765 36.0367 141.281 36.013 141.621 36.013C141.871 36.013 142.097 36.2301 142.308 36.6682C142.949 38.0576 144.825 42.8256 147.932 50.9723C151.055 59.1704 152.614 63.449 152.614 63.8042L152.618 63.8081ZM138.67 45.7109C138.392 46.2951 137.927 47.5581 137.275 49.504C136.567 51.5683 136.212 52.7801 136.212 53.1393C136.212 53.3761 136.606 53.5103 137.392 53.5379C137.798 53.5655 138.467 53.5774 139.397 53.5774C140.264 53.5774 140.741 53.4708 140.831 53.2616C140.858 53.1945 140.87 53.1037 140.87 52.9853C140.87 52.5472 140.569 51.3434 139.963 49.3698C139.373 47.4634 138.94 46.2438 138.666 45.7149L138.67 45.7109Z" fill="black"/>
</svg>
